<svg xmlns="http://www.w3.org/2000/svg" width="32" height="32" viewBox="0 0 32 32" fill="none">
  <g transform="translate(2.0 3.0) scale(0.979021 0.977011) translate(-0.0 -0.0)">
    <path id="Vector" d="M14.3068 0.149609C15.6189 0.149609 16.8866 0.83781 17.6105 2.10957L27.9338 20.1809C28.282 20.7822 28.4504 21.4413 28.4504 22.0861C28.4503 23.1564 28.083 24.1231 27.4143 24.8234C26.7445 25.5248 25.7799 25.9504 24.6037 25.9504H3.99629C2.82677 25.9504 1.86196 25.5254 1.19063 24.8244C0.520232 24.1244 0.149671 23.1571 0.149609 22.0861V22.0852C0.151022 21.4197 0.329762 20.7668 0.666211 20.1936L10.9895 2.10957V2.10859C11.7265 0.837581 13.008 0.149616 14.3068 0.149609ZM14.4572 23.5373H24.5773C25.4085 23.5372 25.9932 22.8474 25.9934 22.0861C25.9934 21.8707 25.9333 21.6131 25.8098 21.3625L15.5021 3.28047L15.5012 3.27949C15.265 2.85941 14.8776 2.6502 14.4572 2.61055V23.5373Z" fill="#000" stroke="#000" stroke-width="0.3"/>
  </g>
</svg>
